{"title":"Eleve Libre (2008) DVD RIP UNCUT ","uid":10399783,"size":2820630288,"categoryP":"video","categoryS":"movies","magnet":"?xt=urn:btih:9e2b319baaa53a3bfc24b55730158904fd9e2253&amp;dn=Eleve+Libre+%282008%29+DVD+RIP+UNCUT+&amp;tr=udp%3A%2F%2Ftracker.openbittorrent.com%3A80&amp;tr=udp%3A%2F%2Fopen.demonii.com%3A1337&amp;tr=udp%3A%2F%2Ftracker.coppersurfer.tk%3A6969&amp;tr=udp%3A%2F%2Fexodus.desync.com%3A6969","seeders":2,"leechers":3,"uploader":"jmanwf","files":-1,"time":1403336329,"description":"Storyline\n\nAn aspiring tennis player is taken under the wing of an established player as his family life falls apart.\n\nFormat                                   : MPEG-4\nFormat profile                           : Base Media / Version 2\nCodec ID                                 : mp42\nFile size                                : 2.60 GiB\nDuration                                 : 1h 47mn\nOverall bit rate                         : 3 454 Kbps\nEncoded date                             : UTC 2014-06-20 05:42:20\nTagged date                              : UTC 2014-06-20 07:04:35\nWriting application                      : HandBrake 0.9.9 2013052900\n\nVideo\nID                                       : 1\nFormat                                   : AVC\nFormat/Info                              : Advanced Video Codec\nFormat profile                           : &lt;a class=&quot;__cf_email__&quot; href=&quot;/cdn-cgi/l/email-protection&quot; data-cfemail=&quot;c68eafa1ae868af2e8f7&quot;&gt;[email&amp;#160;protected]&lt;/a&gt;&lt;script cf-hash='f9e31' type=&quot;text/javascript&quot;&gt;\n/* &lt;![CDATA[ */!function(){try{var t=&quot;currentScript&quot;in document?document.currentScript:function(){for(var t=document.getElementsByTagName(&quot;script&quot;),e=t.length;e--;)if(t[e].getAttribute(&quot;cf-hash&quot;))return t[e]}();if(t&amp;&amp;t.previousSibling){var e,r,n,i,c=t.previousSibling,a=c.getAttribute(&quot;data-cfemail&quot;);if(a){for(e=&quot;&quot;,r=parseInt(a.substr(0,2),16),n=2;a.length-n;n+=2)i=parseInt(a.substr(n,2),16)^r,e+=String.fromCharCode(i);e=document.createTextNode(e),c.parentNode.replaceChild(e,c)}}}catch(u){}}();/* ]]&gt; */&lt;/script&gt;\nFormat settings, CABAC                   : Yes\nFormat settings, ReFrames                : 5 frames\nCodec ID                                 : avc1\nCodec ID/Info                            : Advanced Video Coding\nDuration                                 : 1h 47mn\nBit rate                                 : 3 000 Kbps\nWidth                                    : 720 pixels\nHeight                                   : 480 pixels\nDisplay aspect ratio                     : 16:9\nFrame rate mode                          : Constant\nFrame rate                               : 29.970 fps\nStandard                                 : NTSC\nColor space                              : YUV\nChroma subsampling                       : 4:2:0\nBit depth                                : 8 bits\nScan type                                : Progressive\nBits/(Pixel*Frame)                       : 0.290\nStream size                              : 2.26 GiB (87%)\nWriting library                          : x264 core 130 r2273 b3065e6\nvbv_bufsize=78125 / nal_hrd=none / ip_ratio=1.40 / aq=1:1.00\nEncoded date                             : UTC 2014-06-20 05:42:20\nTagged date                              : UTC 2014-06-20 07:04:35\nColor primaries                          : BT.601 NTSC\nTransfer characteristics                 : BT.709\nMatrix coefficients                      : BT.601\n\nAudio\nID                                       : 2\nFormat                                   : AC-3\nFormat/Info                              : Audio Coding 3\nMode extension                           : CM (complete main)\nFormat settings, Endianness              : Big\nCodec ID                                 : ac-3\nDuration                                 : 1h 47mn\nBit rate mode                            : Constant\nBit rate                                 : 448 Kbps\nChannel(s)                               : 6 channels\nChannel positions                        : Front: L C R, Side: L R, LFE\nSampling rate                            : 48.0 KHz\nBit depth                                : 16 bits\nCompression mode                         : Lossy\nStream size                              : 346 MiB (13%)\nLanguage                                 : French\nEncoded date                             : UTC 2014-06-20 05:42:20\nTagged date                              : UTC 2014-06-20 07:04:34\n\n\n &lt;a href=&quot;\nhttp://postimg.org/image/5g04pgzbj/&quot; rel=&quot;nofollow&quot; target=&quot;_NEW&quot;&gt;\nhttp://postimg.org/image/5g04pgzbj/&lt;/a&gt;\n\n &lt;a href=&quot;\nhttp://postimg.org/image/mf934qaj3/&quot; rel=&quot;nofollow&quot; target=&quot;_NEW&quot;&gt;\nhttp://postimg.org/image/mf934qaj3/&lt;/a&gt;\n\n &lt;a href=&quot;\nhttp://postimg.org/image/ilfmvkt73/&quot; rel=&quot;nofollow&quot; target=&quot;_NEW&quot;&gt;\nhttp://postimg.org/image/ilfmvkt73/&lt;/a&gt;\n\n &lt;a href=&quot;\nhttp://www.imdb.com/title/tt1226334/&quot; rel=&quot;nofollow&quot; target=&quot;_NEW&quot;&gt;\nhttp://www.imdb.com/title/tt1226334/&lt;/a&gt;\n\n\n\n\n\nINCLUDES ENGLISH SUBTITLES NOT HARDCODED\n","torrent":{"xt":"urn:btih:9e2b319baaa53a3bfc24b55730158904fd9e2253","amp;dn":"Eleve+Libre+%282008%29+DVD+RIP+UNCUT+","amp;tr":["udp%3A%2F%2Ftracker.openbittorrent.com%3A80","udp%3A%2F%2Fopen.demonii.com%3A1337","udp%3A%2F%2Ftracker.coppersurfer.tk%3A6969","udp%3A%2F%2Fexodus.desync.com%3A6969"],"infoHash":"9e2b319baaa53a3bfc24b55730158904fd9e2253","infoHashBuffer":{"type":"Buffer","data":[158,43,49,155,170,165,58,59,252,36,181,87,48,21,137,4,253,158,34,83]},"announce":[],"urlList":[]}}